<?xml version="1.0" standalone="no"?>
<!DOCTYPE svg PUBLIC "-//W3C//DTD SVG 20010904//EN"
 "http://www.w3.org/TR/2001/REC-SVG-20010904/DTD/svg10.dtd">
<svg version="1.0" xmlns="http://www.w3.org/2000/svg"
 width="1157.000000pt" height="1280.000000pt" viewBox="0 0 1157.000000 1280.000000"
 preserveAspectRatio="xMidYMid meet">
<metadata>
Created by potrace 1.15, written by Peter Selinger 2001-2017
</metadata>
<g transform="translate(0.000000,1280.000000) scale(0.100000,-0.100000)"
fill="#000000" stroke="none">
<path d="M9470 12794 c-225 -20 -489 -75 -650 -134 -438 -160 -754 -467 -923
-897 -142 -359 -187 -669 -187 -1294 l0 -347 -152 -128 c-168 -140 -424 -391
-534 -524 -39 -47 -126 -158 -194 -247 l-123 -163 26 -37 c76 -109 203 -258
254 -298 32 -25 74 -48 93 -51 80 -15 92 -51 36 -107 -79 -79 -202 -102 -316
-58 -111 42 -247 169 -356 332 -24 36 -78 129 -120 205 -74 136 -122 210 -130
201 -15 -14 94 -256 236 -526 64 -123 69 -136 53 -145 -11 -6 -143 -10 -343
-11 -289 0 -328 2 -357 17 -70 39 -91 106 -143 468 -44 305 -49 329 -91 515
-49 210 -113 424 -204 680 -100 278 -169 509 -191 639 -16 90 -15 255 2 409 4
34 3 57 -3 57 -5 0 -23 -24 -39 -52 -27 -50 -29 -61 -32 -193 -7 -247 37 -489
122 -673 158 -341 292 -827 386 -1404 54 -332 70 -463 70 -571 0 -117 -16
-152 -85 -189 -74 -40 -208 -73 -277 -69 -31 2 -62 149 -93 451 -58 552 -157
1015 -360 1670 -155 502 -174 670 -95 868 84 208 221 328 390 340 205 14 433
-156 569 -426 70 -138 168 -457 246 -799 25 -109 59 -256 75 -328 55 -236 66
-192 25 95 -69 473 -174 871 -305 1150 -88 186 -91 197 -53 207 70 20 231 0
310 -38 35 -17 48 -32 82 -99 107 -205 230 -594 311 -985 38 -184 67 -285 82
-285 33 0 -82 618 -177 950 -60 210 -146 381 -272 540 -119 151 -228 222 -351
228 -197 11 -634 -114 -808 -230 -154 -103 -203 -209 -247 -532 l-22 -161 -40
3 c-1072 64 -1253 72 -1586 72 -497 0 -790 -32 -1274 -140 -431 -96 -554 -146
-632 -263 -77 -114 -83 -289 -34 -1012 45 -668 49 -735 76 -1225 45 -816 89
-1763 145 -3135 54 -1314 69 -1501 131 -1602 23 -37 156 -156 273 -245 146
-110 236 -143 491 -178 216 -30 419 -65 617 -106 397 -81 576 -107 823 -120
l120 -6 -25 21 c-29 23 -131 44 -473 96 -254 39 -439 77 -471 98 -47 31 -135
387 -96 387 5 0 38 -16 73 -35 59 -33 77 -37 233 -55 93 -10 212 -26 264 -34
52 -9 121 -16 152 -16 76 0 88 16 88 125 0 130 -32 162 -105 105 -102 -78
-115 -84 -181 -88 -35 -2 -101 1 -146 8 -89 12 -694 127 -717 135 -10 4 -12
34 -10 148 5 172 15 197 80 197 72 0 130 -42 198 -142 18 -27 36 -48 41 -48 6
0 10 21 10 48 0 60 21 92 60 92 16 0 62 -7 102 -15 40 -9 150 -29 243 -46 94
-16 211 -39 262 -50 51 -11 102 -19 115 -17 32 4 48 43 48 114 0 133 -46 173
-122 107 -31 -27 -96 -34 -217 -23 -242 22 -606 96 -747 152 -48 19 -62 30
-76 60 -12 25 -26 39 -43 43 -14 3 -36 7 -49 10 -82 17 -316 522 -380 822 -8
37 -20 174 -26 303 -6 129 -24 449 -40 710 -16 261 -43 714 -60 1005 -42 718
-71 1153 -90 1325 -13 115 -13 247 1 256 19 11 65 -45 107 -129 22 -45 97
-217 167 -382 295 -699 436 -993 494 -1032 42 -29 71 -29 105 -2 69 55 88 150
79 414 -7 212 -1 235 44 179 63 -77 209 -423 253 -598 18 -73 20 -96 11 -125
-16 -54 -3 -62 69 -43 33 9 62 14 65 11 3 -3 -2 -23 -10 -44 -20 -46 -13 -84
25 -145 101 -161 590 -1512 590 -1629 0 -54 -99 117 -275 474 -133 270 -205
436 -205 472 0 25 -53 88 -67 80 -23 -15 38 -183 280 -773 74 -181 156 -387
182 -459 50 -138 101 -323 91 -332 -20 -21 -83 86 -182 310 -42 95 -96 212
-122 260 -86 164 -98 129 -22 -69 117 -306 128 -350 88 -378 -34 -24 -76 -20
-408 34 -624 101 -973 140 -938 105 23 -24 422 -93 1038 -180 l406 -58 89
-196 c171 -378 192 -480 216 -1036 13 -282 3 -456 -26 -501 -8 -13 -15 -26
-15 -30 0 -11 721 3 790 15 111 20 228 66 466 179 256 122 356 162 420 164 62
3 74 -13 91 -124 44 -299 406 -718 619 -718 26 0 43 -8 65 -29 26 -26 29 -36
29 -93 0 -36 -5 -69 -12 -76 -21 -21 -109 -13 -355 29 -412 70 -764 126 -1223
194 -619 91 -922 138 -1229 190 -356 61 -475 60 -715 -1 -525 -134 -2213 -652
-2348 -720 -38 -20 -67 -74 -79 -146 -12 -73 -30 -106 -62 -112 -12 -2 -51 -9
-87 -15 -98 -16 -135 -67 -90 -124 45 -57 193 -104 510 -162 417 -77 951 -180
1295 -250 2074 -423 5406 -1055 5565 -1055 55 0 183 36 300 86 58 24 236 114
395 200 744 400 1740 914 1925 993 79 34 120 69 120 102 0 34 -52 76 -116 94
-76 22 -122 49 -212 124 -90 75 -132 97 -210 110 -78 12 -108 29 -188 101 -95
87 -129 81 -143 -25 -11 -76 -33 -90 -94 -59 -94 49 -258 210 -630 620 -306
338 -411 465 -453 551 -58 116 -40 139 198 252 l148 70 129 -148 c340 -387
566 -534 941 -612 139 -29 464 -37 623 -15 360 51 626 172 854 389 241 231
401 528 508 943 188 728 51 1593 -343 2179 -171 254 -445 512 -644 605 -153
72 -320 92 -727 89 l-285 -2 -38 114 c-134 398 -214 814 -225 1174 -6 189 9
332 42 395 22 42 78 60 193 60 271 1 500 28 657 77 363 115 644 409 882 927
211 460 266 915 187 1541 -79 626 -285 1075 -683 1488 -193 200 -353 300 -561
348 -84 20 -358 33 -470 23z m58 -138 c197 -64 403 -184 544 -315 323 -301
537 -791 623 -1421 63 -461 60 -592 -20 -925 -212 -889 -542 -1367 -1029
-1490 -385 -98 -743 -40 -1062 171 -383 254 -707 801 -766 1291 -18 151 -18
1126 0 1276 43 359 220 738 462 990 171 179 363 300 597 376 101 33 155 46
313 75 14 2 77 3 140 2 92 -3 131 -9 198 -30z m-3733 -1076 c37 -14 46 -29 34
-52 -37 -69 -206 -72 -306 -5 -57 38 -66 63 -26 70 49 9 267 -1 298 -13z
m-1083 -1070 c37 -73 16 -189 -40 -226 -34 -22 -244 -85 -303 -91 -57 -6 -111
19 -157 72 -42 47 -41 69 8 104 79 57 398 184 450 179 17 -2 30 -14 42 -38z
m-2127 -134 c540 -32 872 -64 924 -89 50 -24 35 -114 -22 -140 -71 -32 -282
-29 -872 13 -647 46 -1021 61 -999 41 40 -40 1115 -122 1809 -137 261 -6 631
4 808 22 l57 6 0 -119 c0 -135 -9 -162 -60 -180 -41 -14 -450 -17 -519 -4 -58
12 -79 35 -89 101 l-8 55 -38 -57 c-54 -81 -81 -92 -245 -96 -181 -5 -139 -9
-1693 157 -98 11 -181 22 -185 24 -13 8 3 257 21 327 28 110 -3 104 456 97
217 -3 512 -13 655 -21z m-1390 -120 c96 -25 165 -79 165 -128 0 -31 -39 -78
-63 -78 -66 0 -203 80 -245 143 l-26 39 23 19 c27 22 76 24 146 5z m3635 -25
c15 -28 12 -138 -4 -169 -18 -34 -51 -65 -96 -87 -50 -26 -194 -73 -245 -80
-38 -6 -47 -4 -68 17 -29 29 -69 132 -65 167 4 33 46 54 234 121 155 55 226
64 244 31z m-3532 -278 c91 -45 166 -115 175 -163 29 -156 56 -581 87 -1355
24 -600 35 -857 55 -1235 14 -267 24 -477 75 -1630 30 -681 69 -1446 85 -1703
15 -233 18 -409 6 -462 -4 -21 -13 -31 -28 -33 -57 -8 -234 116 -299 210 -39
58 -35 9 -69 773 -14 319 -35 758 -45 975 -11 217 -33 694 -50 1060 -31 683
-52 1125 -70 1450 -101 1843 -114 2128 -98 2148 19 22 90 8 176 -35z m2987
-255 c31 -143 55 -577 90 -1628 29 -857 52 -1485 95 -2500 70 -1668 90 -2212
90 -2453 l0 -165 -87 -16 c-92 -17 -472 -63 -558 -68 l-50 -3 -22 555 c-29
733 -64 1490 -118 2575 -73 1453 -100 2113 -115 2795 -10 440 -2 809 19 862
18 48 130 65 443 67 l208 1 5 -22z m-1615 -234 c354 -32 408 -52 386 -139 -13
-51 -95 -70 -341 -80 -168 -6 -482 7 -573 25 -85 16 -106 30 -110 70 -8 74 46
124 152 141 63 10 281 2 486 -17z m5145 -216 c65 -51 72 -138 19 -248 -60
-127 -82 -252 -50 -296 13 -17 28 -19 168 -20 172 -1 290 -19 542 -84 317 -81
507 -172 411 -196 -43 -11 -199 7 -584 67 -312 48 -469 89 -551 143 -81 54
-136 255 -96 351 10 23 22 35 34 35 76 0 81 164 7 229 -19 17 -35 33 -35 36 0
3 24 5 54 5 40 0 60 -6 81 -22z m-285 -58 c44 -32 75 -141 48 -168 -20 -20
-40 -14 -102 28 -32 22 -65 40 -73 40 -8 0 -22 -13 -31 -30 -22 -38 -32 -38
-32 0 0 110 111 186 190 130z m162 -37 c22 -20 25 -81 3 -89 -32 -13 -86 65
-64 92 15 19 38 18 61 -3z m-5182 -178 c420 -31 586 -66 605 -124 8 -26 -16
-71 -61 -115 -64 -63 -69 -63 -338 -32 -283 32 -566 72 -618 86 -20 6 -47 19
-59 29 -21 17 -22 21 -11 60 17 55 50 91 92 101 55 13 168 11 390 -5z m4959
-50 c38 -19 124 -128 156 -196 61 -131 13 -271 -125 -363 -30 -20 -82 -21
-118 -2 -51 26 -119 110 -136 167 -45 152 11 340 119 394 38 19 68 19 104 0z
m619 -27 c30 -30 1 -93 -56 -126 -57 -31 -94 -29 -126 9 -29 34 -31 42 -15 71
24 44 166 77 197 46z m-5633 -479 c560 -55 899 -122 868 -172 -8 -13 -299 -3
-513 18 -493 47 -801 95 -857 131 -88 57 84 65 502 23z m5619 -68 c211 -48
293 -128 224 -217 -58 -74 -88 -73 -88 1 0 52 -31 98 -64 93 -21 -3 -22 -8
-14 -77 5 -44 -30 -53 -169 -46 -296 15 -444 58 -451 133 -3 25 4 40 35 72 60
64 92 71 278 66 109 -4 188 -12 249 -25z m-2256 -88 c7 -11 5 -33 -5 -66 -20
-67 -9 -77 55 -53 26 10 91 31 146 47 183 54 212 39 204 -104 -5 -96 -44 -200
-110 -294 -106 -151 -112 -196 -62 -493 31 -188 38 -250 38 -375 1 -139 -1
-153 -23 -195 -52 -100 -260 -320 -302 -320 -52 0 -83 166 -78 415 7 331 3
620 -10 705 -15 106 -31 170 -41 170 -4 0 -10 -27 -14 -61 -15 -151 -141 -277
-222 -224 -64 42 -73 192 -18 302 40 79 86 110 183 122 95 12 108 24 92 85 -9
37 -9 53 3 81 8 19 22 38 31 41 28 11 17 49 -25 83 -22 17 -40 38 -40 45 0 18
27 41 91 76 61 34 94 38 107 13z m-271 -130 c30 -72 -4 -211 -60 -247 -12 -9
-51 -23 -86 -32 -108 -27 -171 6 -171 89 0 104 139 227 258 227 40 0 44 -2 59
-37z m1657 -192 c3 -5 -33 -25 -82 -44 -48 -19 -118 -49 -156 -66 -38 -17 -71
-30 -73 -27 -8 8 134 107 182 126 53 20 120 26 129 11z m982 -3 c11 -17 -57
-72 -204 -163 -216 -135 -295 -233 -343 -424 -26 -105 -21 -141 25 -185 92
-86 88 -238 -7 -310 -41 -32 -87 -42 -117 -26 -25 14 -50 67 -50 109 0 16 -4
32 -9 35 -9 6 -15 -6 -51 -106 -69 -189 -249 -138 -250 72 0 121 74 209 196
231 101 19 132 40 105 73 -18 21 -151 54 -308 76 -232 32 -327 59 -309 88 14
23 79 24 204 3 155 -26 315 -43 348 -36 13 3 35 7 49 10 14 3 25 12 25 21 0
29 -63 42 -253 53 -381 23 -654 95 -539 143 18 8 98 10 257 8 471 -9 555 -7
613 14 31 10 102 54 170 105 169 125 246 171 342 207 45 16 97 17 106 2z
m-1536 -34 c63 -9 117 -18 118 -19 2 -2 -42 -58 -97 -124 -56 -67 -113 -145
-128 -174 l-28 -52 0 -216 c0 -168 -3 -219 -14 -232 -19 -23 -78 -22 -146 4
-60 22 -182 107 -178 124 2 6 35 13 75 16 77 7 123 23 132 45 13 35 -19 57
-104 70 -91 13 -146 109 -144 249 1 88 36 166 106 231 98 92 188 109 408 78z
m-1380 -208 c24 -65 94 -1246 74 -1266 -14 -14 -251 -120 -283 -126 -27 -6
-28 -4 -39 53 -14 71 -37 301 -53 523 -14 190 -18 647 -6 702 18 85 105 132
255 137 36 1 44 -2 52 -23z m3255 -5 c157 -29 303 -67 354 -94 57 -29 78 -70
92 -178 37 -289 -87 -558 -236 -509 -51 17 -109 90 -147 184 -46 117 -45 203
5 345 20 58 35 106 33 108 -7 8 -70 -73 -87 -111 -49 -111 -46 -279 7 -428 32
-87 40 -143 24 -153 -23 -14 -60 6 -84 48 -31 53 -45 109 -54 217 -8 98 -20
108 -75 66 -66 -51 -210 -58 -407 -21 -150 29 -180 57 -180 168 0 184 152 342
365 378 75 12 266 2 390 -20z m-5465 -241 c12 -44 4 -90 -15 -90 -18 0 -29 53
-21 96 9 45 23 43 36 -6z m162 -67 c34 -31 11 -93 -35 -93 -27 0 -57 28 -57
53 0 48 56 73 92 40z m4928 -398 c39 -8 108 -19 152 -24 96 -11 128 -33 128
-91 0 -20 -6 -44 -13 -54 -12 -16 -20 -16 -162 4 -82 12 -166 29 -187 37 -65
26 -93 77 -68 124 13 24 52 25 150 4z m-273 -21 c17 -44 -80 -216 -243 -434
-206 -275 -232 -334 -210 -476 7 -46 6 -54 -14 -74 -18 -18 -29 -21 -64 -16
-75 12 -101 66 -75 161 29 106 215 408 420 682 122 163 168 202 186 157z
m-2348 -95 c23 -38 38 -147 46 -329 3 -74 22 -450 41 -835 36 -686 50 -1302
31 -1367 -5 -19 -16 -29 -35 -33 -15 -3 -52 -12 -82 -20 -48 -12 -57 -12 -71
1 -35 31 -51 198 -70 729 -17 463 -18 1445 -1 1603 14 133 35 224 58 260 22
33 60 29 83 -9z m841 -225 c65 -21 131 -73 172 -135 189 -288 138 -800 -90
-901 -28 -13 -77 -22 -138 -25 -91 -6 -95 -5 -161 27 -145 71 -257 226 -269
372 -18 206 49 449 156 571 93 106 198 135 330 91z m1652 -5 c-4 -43 18 -51
165 -61 158 -10 323 -41 371 -69 36 -21 96 -25 138 -9 40 16 82 3 122 -37 34
-35 37 -35 96 -30 34 3 119 24 190 46 183 59 296 75 481 68 224 -8 364 -43
570 -142 196 -94 323 -199 459 -379 235 -310 365 -622 426 -1021 27 -179 43
-471 35 -650 -23 -537 -44 -659 -161 -917 -147 -324 -343 -571 -579 -727 -186
-123 -359 -179 -581 -188 -223 -10 -426 37 -662 153 -292 144 -471 342 -678
751 -89 176 -135 302 -154 423 -7 45 -14 250 -17 516 -8 730 21 1025 128 1292
42 105 81 174 235 413 136 210 161 255 152 265 -3 3 -53 9 -110 13 -111 9
-173 29 -235 77 -112 85 -318 74 -374 -20 -12 -20 -25 -36 -29 -36 -4 0 -11
33 -15 73 -4 39 -12 80 -17 91 -10 19 -14 19 -150 0 -48 -7 -48 -7 -48 23 0
61 88 114 185 110 58 -2 60 -3 57 -28z m-652 -84 c15 -18 3 -71 -30 -135 -53
-104 -120 -82 -120 40 0 69 35 110 95 110 26 0 47 -6 55 -15z m-1624 -213 c47
-31 43 -126 -6 -152 -28 -15 -70 27 -70 70 0 47 26 90 55 90 6 0 15 -4 21 -8z
m2501 -12 c80 -49 80 -160 0 -247 -50 -54 -78 -67 -112 -51 -56 25 -95 190
-61 257 30 57 114 78 173 41z m-417 -46 c43 -20 93 -52 112 -71 33 -34 33 -35
33 -126 0 -80 -3 -99 -26 -142 -27 -51 -78 -95 -110 -95 -24 0 -57 33 -63 62
-2 13 -8 57 -14 98 -5 41 -21 104 -37 140 -50 120 -59 146 -52 164 10 26 59
16 157 -30z m-225 -50 c28 -11 47 -64 52 -146 15 -213 -95 -341 -267 -308 -27
5 -63 16 -80 25 -62 32 -23 93 69 110 114 20 131 41 131 170 0 125 31 173 95
149z m-1808 -348 c48 -55 159 -240 180 -301 21 -64 14 -100 -50 -250 -75 -176
-91 -233 -91 -335 -1 -69 3 -93 21 -126 43 -80 128 -124 239 -124 74 0 101
-25 114 -105 6 -33 10 -231 10 -440 l0 -380 -138 -64 c-177 -84 -273 -124
-279 -118 -11 11 -22 148 -28 347 -4 118 -13 307 -21 418 -23 340 -37 829 -31
1167 4 304 8 355 27 355 5 0 26 -20 47 -44z m1653 -175 c52 -12 113 -21 136
-21 92 0 110 -69 146 -550 6 -91 12 -294 12 -451 l1 -286 -32 -63 c-40 -76
-41 -90 -8 -90 41 0 60 -41 59 -129 0 -92 -26 -151 -74 -171 -34 -14 -25 -30
17 -30 28 0 63 -45 63 -80 0 -85 -65 -179 -175 -250 -36 -23 -64 -44 -62 -46
1 -2 36 6 77 16 96 25 115 25 141 -1 17 -17 20 -30 16 -59 -7 -53 -33 -88 -89
-116 -52 -27 -59 -41 -28 -69 26 -24 26 -84 0 -159 -31 -93 -110 -231 -164
-292 -71 -80 -186 -131 -202 -89 -7 17 114 326 158 403 16 29 42 60 56 69 15
9 29 18 30 19 2 2 -1 25 -7 53 -15 69 -38 311 -56 591 -42 644 -103 1243 -166
1618 -25 151 -28 186 -18 199 14 16 15 16 169 -16z m-1297 -246 c10 -27 31
-127 47 -222 40 -234 47 -246 144 -236 62 7 96 -3 96 -27 0 -67 -255 -97 -296
-36 -13 20 -12 35 3 129 20 124 14 160 -29 165 -41 5 -52 -24 -36 -99 8 -42 9
-65 2 -77 -19 -30 -59 -52 -107 -58 -55 -8 -87 12 -87 53 0 102 189 475 234
460 6 -2 19 -25 29 -52z m967 -757 c68 -27 154 -74 170 -93 17 -20 -16 -20
-185 1 -156 19 -255 15 -310 -13 -22 -12 -71 -49 -110 -83 -73 -65 -110 -88
-122 -76 -17 16 -6 74 21 109 35 46 143 119 224 152 116 47 199 48 312 3z
m-5230 -50 c34 -55 63 -165 64 -244 1 -42 -3 -74 -9 -76 -5 -1 -19 12 -31 29
-27 40 -93 224 -101 280 -6 43 -6 43 26 43 25 0 36 -7 51 -32z m4915 -277 c22
-10 71 -44 109 -75 81 -67 147 -103 208 -112 78 -13 152 -117 133 -191 -26
-104 -285 -222 -285 -129 0 26 19 46 67 70 42 21 57 49 43 76 -17 32 -53 41
-110 28 -60 -14 -75 -5 -84 51 -7 48 -49 86 -109 101 -144 35 -202 127 -114
180 40 25 90 25 142 1z m-1148 -173 c40 -45 51 -107 62 -359 8 -168 11 -195
29 -218 17 -23 26 -26 73 -25 43 1 80 13 184 61 199 91 308 123 341 98 18 -13
19 -30 18 -272 0 -182 -5 -294 -17 -379 -21 -152 -32 -184 -61 -184 -65 0
-192 146 -284 327 -58 114 -85 153 -98 140 -11 -11 37 -148 96 -276 104 -226
110 -266 45 -349 -19 -25 -35 -49 -35 -54 0 -5 19 3 43 17 77 48 147 77 171
71 12 -3 56 -30 97 -60 75 -56 154 -102 309 -179 106 -53 112 -72 30 -102 -82
-29 -311 -27 -435 3 -352 87 -500 226 -618 583 -39 119 -72 263 -121 529 -80
442 -82 548 -7 596 87 58 145 68 178 32z m1652 -363 c41 -20 64 -77 69 -164 8
-147 -48 -223 -92 -123 -33 76 -55 246 -37 281 14 25 23 26 60 6z m-4787 -412
c53 -61 114 -275 89 -313 -16 -23 -46 12 -80 94 -60 144 -66 283 -9 219z
m-257 -1085 c20 -87 26 -152 31 -373 9 -351 -12 -536 -62 -543 -11 -2 -29 7
-40 19 -16 18 -20 39 -23 148 -5 195 29 619 60 734 11 42 26 48 34 15z m193
-311 c4 -326 -4 -430 -30 -435 -20 -4 -24 15 -38 163 -20 223 -8 464 29 559 9
23 14 27 24 17 9 -9 13 -92 15 -304z m-1127 24 c24 -19 23 -10 38 -268 2 -27
31 -10 70 41 65 84 74 82 105 -22 29 -100 77 -155 166 -195 66 -29 99 -62 82
-79 -23 -23 -323 23 -872 132 -222 45 -350 60 -350 42 0 -24 283 -89 790 -182
212 -39 473 -89 580 -111 462 -95 652 -133 933 -184 163 -30 433 -80 600 -111
377 -69 1062 -199 1567 -298 888 -173 1301 -249 1637 -300 320 -49 410 -59
558 -60 113 -1 139 2 200 23 172 59 595 249 1120 503 568 276 1011 475 1132
511 45 13 53 14 63 1 7 -7 10 -20 7 -28 -3 -7 -234 -130 -514 -271 -1320 -670
-1683 -877 -1683 -962 0 -60 67 -38 423 134 262 126 398 185 406 177 7 -7 -26
-29 -164 -112 -461 -278 -786 -416 -891 -382 -39 13 -64 55 -64 109 0 99 -73
130 -450 191 -533 86 -1214 210 -2305 420 -827 160 -1044 202 -1750 339 -396
77 -954 185 -1240 241 -1055 205 -1155 232 -1155 308 0 44 21 105 43 131 49
52 177 102 517 201 290 83 360 94 401 61z m5399 -177 c198 -20 526 -63 1025
-135 700 -100 992 -152 1042 -184 23 -15 23 -18 9 -34 -24 -26 -176 -103 -306
-155 -125 -49 -270 -91 -353 -101 -88 -11 -596 61 -1377 195 -666 114 -858
140 -1050 140 l-115 0 115 76 c137 90 291 167 377 189 148 37 336 40 633 9z
m-6306 -439 c54 -14 110 -32 124 -39 26 -14 25 -14 -31 -21 -67 -9 -170 0
-245 19 -54 15 -112 50 -112 68 0 18 153 2 264 -27z m5525 25 c31 -16 50 -84
71 -248 26 -198 28 -423 6 -457 -21 -32 -83 -48 -154 -40 -214 23 -305 42
-332 67 -24 22 -24 28 -4 93 8 28 18 94 21 147 7 116 15 133 44 98 76 -94 91
-110 100 -105 5 4 9 89 9 195 0 182 1 190 23 215 32 36 171 59 216 35z m4013
-57 c22 -20 23 -52 3 -79 -14 -18 -16 -18 -45 14 -29 31 -38 61 -23 75 12 12
46 7 65 -10z m-1876 -224 c11 -18 -18 -29 -70 -27 -49 3 -73 22 -39 31 36 9
102 7 109 -4z m-4957 -284 c66 -17 161 -57 161 -67 0 -12 -98 -10 -166 3 -87
16 -220 69 -203 81 18 12 137 2 208 -17z m493 -110 c297 -35 398 -55 398 -80
0 -23 -33 -26 -125 -10 -90 16 -406 93 -414 101 -6 6 -9 6 141 -11z m584 -100
c16 -13 17 -16 4 -25 -8 -5 -32 -10 -52 -10 -70 0 -91 23 -35 39 47 13 61 13
83 -4z m309 -55 c63 -6 160 -24 225 -43 l115 -32 -80 -3 c-44 -2 -118 2 -165
8 -95 12 -310 60 -310 69 0 11 105 12 215 1z m651 -121 c71 -12 185 -48 199
-61 28 -28 -275 14 -405 56 l-45 14 96 1 c52 1 122 -4 155 -10z m591 -103
c121 -26 260 -73 240 -81 -28 -11 -205 1 -260 19 -49 15 -117 55 -117 69 0 11
63 8 137 -7z m470 -107 c41 -15 12 -29 -62 -29 -61 0 -105 14 -75 24 8 2 22 7
30 9 26 9 78 7 107 -4z m627 -105 c26 -10 18 -31 -13 -37 -34 -7 -101 2 -101
13 0 19 82 36 114 24z"/>
<path d="M9185 12242 c-103 -63 -178 -238 -179 -417 -1 -82 2 -95 31 -150 116
-221 291 -250 382 -63 42 86 54 160 48 303 -7 173 -48 276 -131 326 -40 24
-111 25 -151 1z"/>
<path d="M8544 12231 c-35 -21 -84 -80 -84 -101 0 -8 8 -10 23 -6 12 3 49 9
83 12 46 5 63 3 70 -7 5 -8 27 -68 49 -134 56 -163 141 -366 240 -571 106
-221 135 -246 76 -67 -80 243 -295 748 -372 871 -17 27 -44 28 -85 3z"/>
<path d="M9910 12092 c-59 -27 -114 -102 -92 -124 24 -24 141 83 128 117 -6
16 -13 17 -36 7z"/>
<path d="M9749 11783 c-87 -138 -219 -416 -204 -431 9 -9 21 8 89 122 58 98
154 295 171 354 12 43 -13 22 -56 -45z"/>
<path d="M8180 11409 c0 -47 521 -463 645 -515 34 -14 35 -13 35 7 0 57 -370
357 -601 488 -59 33 -79 38 -79 20z"/>
<path d="M9681 11251 c-12 -22 0 -72 30 -120 27 -45 44 -28 44 43 0 76 -48
126 -74 77z"/>
<path d="M9479 11209 c-21 -40 -6 -123 33 -186 20 -31 41 -59 47 -61 15 -5 14
59 -4 143 -26 121 -49 153 -76 104z"/>
<path d="M8281 11050 c-139 -101 -178 -347 -86 -536 45 -92 142 -184 193 -184
32 0 87 54 110 107 33 79 45 163 39 285 -5 120 -22 185 -65 250 -28 43 -108
108 -132 108 -9 0 -36 -14 -59 -30z"/>
<path d="M10220 10987 c-72 -30 -226 -118 -291 -167 -28 -21 -62 -54 -76 -73
-54 -77 -54 -304 0 -385 57 -85 310 -191 429 -180 57 6 81 25 97 78 18 62 33
310 29 485 -7 258 -41 302 -188 242z"/>
<path d="M9315 10796 c-69 -22 -192 -86 -235 -123 -141 -121 -68 -231 162
-241 144 -6 207 21 271 118 35 51 13 120 -65 203 -49 53 -76 62 -133 43z m-24
-96 c25 0 49 -42 49 -84 0 -37 -6 -51 -34 -80 -83 -88 -195 -5 -139 104 19 36
78 74 101 65 8 -3 18 -5 23 -5z"/>
<path d="M8715 10292 c-199 -112 -555 -360 -555 -388 0 -41 103 7 250 117 146
109 231 165 273 180 57 20 82 2 139 -106 77 -146 140 -200 118 -99 -23 100
-130 316 -160 321 -8 2 -37 -10 -65 -25z"/>
<path d="M9788 10090 c133 -124 534 -381 558 -357 11 11 -27 66 -73 107 -118
105 -465 311 -522 310 -24 -1 -21 -6 37 -60z"/>
<path d="M9223 9660 c-150 -34 -222 -297 -152 -550 11 -40 28 -88 38 -109 52
-101 163 -138 261 -88 86 43 116 146 108 371 -10 270 -105 410 -255 376z"/>
<path d="M9573 9605 c4 -22 36 -128 71 -235 119 -360 179 -470 216 -400 23 44
-40 215 -183 493 -88 173 -115 209 -104 142z"/>
<path d="M8811 9448 c-21 -46 -60 -145 -86 -221 -74 -219 -66 -288 45 -354 39
-24 66 -33 97 -33 63 0 56 19 -37 96 -44 36 -85 74 -90 84 -18 34 -10 80 31
188 76 198 111 322 90 322 -6 0 -28 -37 -50 -82z"/>
<path d="M7401 8651 c-25 -25 -27 -50 -7 -77 14 -18 15 -18 46 11 21 21 30 37
28 55 -4 33 -40 38 -67 11z"/>
<path d="M7615 8256 c-19 -28 -9 -58 26 -76 45 -25 94 51 57 88 -21 21 -66 14
-83 -12z"/>
<path d="M7278 6965 c-17 -39 5 -103 39 -111 60 -15 84 50 38 105 -32 38 -61
40 -77 6z"/>
<path d="M8757 7411 c-47 -44 -45 -58 7 -41 72 23 115 80 61 80 -16 0 -42 -15
-68 -39z"/>
<path d="M6286 6341 c-3 -5 16 -23 42 -40 106 -68 132 -124 92 -206 -19 -40
-98 -115 -120 -115 -4 0 -5 20 -3 45 5 42 4 45 -31 66 -20 11 -36 27 -36 34 0
7 23 32 50 55 28 23 47 46 44 52 -4 6 -28 8 -55 6 -62 -6 -134 -50 -173 -105
-26 -38 -28 -45 -17 -71 16 -38 121 -117 184 -138 45 -15 52 -15 92 1 46 17
99 69 117 114 6 14 10 56 11 92 0 84 -36 169 -85 199 -34 20 -102 27 -112 11z"/>
<path d="M9160 6102 c0 -64 6 -78 27 -61 15 13 17 57 3 93 -16 44 -30 29 -30
-32z"/>
<path d="M9617 6104 c-170 -52 -238 -315 -138 -530 58 -124 150 -192 245 -182
59 7 130 49 166 100 43 58 82 187 83 273 1 92 -21 154 -85 239 -83 110 -154
136 -271 100z"/>
<path d="M8938 6069 c-26 -19 -143 -161 -203 -244 -15 -22 33 21 109 96 75 75
136 144 136 153 0 21 -9 20 -42 -5z"/>
<path d="M10190 5963 c-40 -45 -100 -153 -100 -180 0 -7 7 -13 15 -13 16 0 49
31 92 87 31 41 57 49 88 29 14 -9 81 -81 151 -161 69 -80 131 -145 136 -145
44 0 -173 340 -256 400 -56 42 -77 39 -126 -17z"/>
<path d="M9274 5722 c14 -95 154 -440 183 -449 33 -11 -115 401 -169 468 l-20
24 6 -43z"/>
<path d="M8604 5615 c-4 -10 0 -31 11 -50 20 -39 195 -211 343 -339 104 -90
166 -158 160 -176 -5 -17 -97 33 -248 135 -147 99 -285 174 -298 160 -19 -19
167 -163 443 -341 172 -112 222 -141 230 -132 3 3 -7 32 -24 63 -17 31 -33 73
-37 93 -9 53 -71 129 -209 256 -66 61 -175 165 -242 230 -101 98 -124 116
-129 101z"/>
<path d="M10549 5192 c-168 -110 -357 -282 -311 -282 37 0 365 259 392 310 16
30 -1 24 -81 -28z"/>
<path d="M9930 4985 c0 -59 123 -190 145 -154 14 22 -10 74 -54 120 -47 49
-91 65 -91 34z"/>
<path d="M10659 4977 c-68 -29 -159 -83 -265 -158 -169 -121 -199 -181 -192
-378 5 -135 19 -172 92 -239 100 -93 306 -209 385 -219 41 -5 51 -2 79 22 66
56 97 235 89 515 -9 292 -54 481 -116 480 -9 0 -41 -11 -72 -23z"/>
<path d="M8692 4949 c-134 -68 -189 -338 -110 -545 30 -77 107 -159 161 -169
96 -18 172 31 232 149 l40 79 0 121 c-1 134 -16 189 -76 280 -59 89 -167 126
-247 85z"/>
<path d="M9637 4756 c-97 -42 -168 -88 -207 -132 -66 -75 -83 -151 -41 -185
27 -22 103 -26 119 -6 6 7 10 40 10 73 -2 70 18 112 74 151 36 24 39 25 57 9
10 -9 24 -35 31 -59 20 -70 48 -116 80 -132 17 -9 30 -22 30 -29 0 -8 -18 -38
-40 -67 -22 -30 -40 -57 -40 -62 0 -5 33 9 72 30 51 27 82 52 103 82 58 82 34
209 -60 319 -46 53 -80 55 -188 8z"/>
<path d="M9109 4196 c-92 -38 -449 -224 -509 -264 -59 -39 -65 -55 -26 -60 38
-5 128 37 387 178 132 73 242 130 243 128 1 -1 28 -40 60 -86 61 -88 92 -114
102 -88 8 21 -46 134 -86 179 -27 32 -38 37 -74 37 -22 -1 -66 -11 -97 -24z"/>
<path d="M10085 4100 c73 -79 610 -450 651 -450 8 0 14 10 14 24 0 33 -67 87
-285 231 -189 126 -335 210 -380 221 l-30 7 30 -33z"/>
<path d="M9483 3849 c-56 -16 -35 -39 35 -39 44 0 72 15 57 29 -16 16 -58 20
-92 10z"/>
<path d="M9363 3648 c-59 -63 -215 -456 -229 -579 -6 -51 -4 -58 17 -73 54
-37 75 -6 88 134 12 124 36 211 103 379 27 68 48 133 46 143 -3 19 -4 19 -25
-4z"/>
<path d="M9615 3621 c-78 -36 -107 -90 -125 -239 -17 -134 5 -315 46 -377 31
-47 100 -79 170 -79 112 0 185 64 237 210 47 131 43 201 -19 342 -60 137 -191
198 -309 143z"/>
<path d="M10050 3596 c0 -114 126 -476 190 -543 20 -22 22 -22 58 -7 53 22
122 83 156 138 39 63 24 78 -34 34 -98 -75 -117 -81 -158 -52 -33 23 -67 96
-108 235 -39 134 -72 211 -91 217 -8 2 -13 -6 -13 -22z"/>
<path d="M7560 4594 c-71 -31 -86 -64 -29 -64 49 0 109 41 109 74 0 11 -45 5
-80 -10z"/>
<path d="M5993 10920 c-41 -17 -25 -30 36 -30 59 0 86 14 60 31 -18 11 -67 10
-96 -1z"/>
<path d="M6095 10636 c-18 -13 -18 -15 -4 -21 9 -3 38 -5 65 -3 36 2 49 7 49
18 0 21 -83 26 -110 6z"/>
<path d="M6160 10254 c-32 -15 -33 -17 -15 -24 29 -12 83 -12 107 1 21 11 21
12 3 25 -24 18 -51 17 -95 -2z"/>
<path d="M6504 9886 c-7 -39 3 -96 17 -96 21 0 32 49 20 90 -15 49 -28 51 -37
6z"/>
<path d="M6210 9868 c-24 -10 -24 -10 -5 -18 28 -12 127 -12 145 0 37 23 -89
40 -140 18z"/>
<path d="M6328 9538 c-38 -13 -35 -24 8 -31 46 -8 94 2 94 18 0 25 -52 32
-102 13z"/>
<path d="M6755 8646 c-20 -14 -19 -15 6 -21 43 -11 104 -2 104 15 0 21 -83 26
-110 6z"/>
<path d="M2673 6801 c-106 -77 -123 -283 -37 -455 26 -52 61 -96 76 -96 19 0
5 78 -33 177 -52 136 -51 176 9 278 71 122 66 155 -15 96z"/>
<path d="M2142 6022 c7 -90 43 -195 71 -200 34 -7 17 122 -31 231 -32 72 -46
62 -40 -31z"/>
<path d="M2540 6000 c-25 -25 -26 -52 -2 -73 37 -34 92 -11 92 38 0 24 -33 55
-57 55 -7 0 -22 -9 -33 -20z"/>
<path d="M2477 5766 c-10 -25 -8 -99 2 -115 16 -24 31 -1 31 48 0 53 -22 97
-33 67z"/>
<path d="M2195 5512 c-3 -21 -1 -51 5 -67 11 -29 12 -30 26 -10 11 14 14 32 9
59 -10 68 -30 77 -40 18z"/>
<path d="M1875 5488 c14 -45 51 -103 68 -106 38 -7 9 76 -39 113 -27 21 -36
18 -29 -7z"/>
</g>
</svg>
